# xmcd
# 
# Track frame offsets:
#     150
#     16055
#     24741
#     51471
# 
# Disc length: 889
# 
# Revision: 1
# Processed by: cddbd v1.5.2PL0 Copyright (c) Steve Scherf et al.
# Submitted via: fre:ac v1.0.17
# 
DISCID=2b037704
DTITLE=amazarashi - スピードと摩擦
DYEAR=2015
DGENRE=
TTITLE0=スピードと摩擦
TTITLE1=風邪
TTITLE2=名前
TTITLE3=スピードと摩擦 Acoustic Ver.
EXTD=
EXTT0=
EXTT1=
EXTT2=
EXTT3=
PLAYORDER=
